<svg version="1.1" id="Layer_1" xmlns="http://www.w3.org/2000/svg" xmlns:xlink="http://www.w3.org/1999/xlink" x="0px" y="0px"
	 width="100%" viewBox="0 0 187 87" enable-background="new 0 0 187 87" xml:space="preserve">
<path fill="#FAF9FA" opacity="1.000000" stroke="none" 
	d="
M148.000000,88.000000 
	C98.666672,88.000000 49.833344,88.000000 1.000013,88.000000 
	C1.000009,59.000008 1.000009,30.000019 1.000004,1.000021 
	C63.333317,1.000014 125.666634,1.000014 187.999969,1.000007 
	C187.999969,29.999979 187.999969,58.999958 187.999985,87.999969 
	C174.833328,88.000000 161.666672,88.000000 148.000000,88.000000 
M56.107365,76.709564 
	C56.002998,77.062141 55.898632,77.414711 55.261417,77.833176 
	C54.693993,77.860870 54.126568,77.888557 53.559147,77.916245 
	C53.505157,78.279671 53.451172,78.643089 53.397186,79.006516 
	C54.601982,79.006516 55.806782,79.006516 57.101395,78.471313 
	C57.219257,78.129181 57.337120,77.787041 58.068195,77.102753 
	C57.558758,76.856033 57.049320,76.609306 56.107365,76.709564 
M173.051147,9.656509 
	C173.514221,10.613577 173.977295,11.570644 174.904739,13.487457 
	C175.472000,11.492697 175.761185,10.475741 176.648544,9.573770 
	C177.219986,10.222541 177.791412,10.871312 178.362854,11.520079 
	C178.889542,11.001355 179.901810,10.404136 179.833496,9.981603 
	C179.720108,9.280200 179.027802,8.483853 178.363998,8.113779 
	C177.719482,7.754470 176.804031,7.881133 175.938400,7.205799 
	C175.291595,6.806731 174.644775,6.407662 173.997971,6.008590 
	C173.653763,7.004937 173.309570,8.001284 173.051147,9.656509 
M146.581131,16.028584 
	C146.771713,16.039799 146.962296,16.051016 147.452591,16.779091 
	C150.239883,22.785866 148.941406,28.835154 147.844070,35.271553 
	C149.762589,35.175461 151.869415,35.069942 154.486115,35.542385 
	C155.235916,35.546272 155.985703,35.550156 157.249573,35.323063 
	C158.182983,35.363365 159.116379,35.403671 160.704178,35.854805 
	C163.234192,35.854805 165.764206,35.854805 168.479431,35.854805 
	C167.902618,32.350418 167.153229,30.270563 164.086761,33.768162 
	C163.593079,34.331257 162.774780,34.609756 161.867844,34.213161 
	C161.626129,29.263998 161.142059,24.310745 161.225540,19.367071 
	C161.283890,15.911016 160.065659,15.348904 157.173615,16.433201 
	C157.070389,18.713396 156.973358,20.856430 156.088135,22.999605 
	C154.774170,22.999645 153.460205,22.999685 151.991272,22.198355 
	C152.293198,20.147093 152.595123,18.095831 153.401199,15.592782 
	C150.847641,13.197057 148.507629,13.323291 145.311279,16.124138 
	C144.929642,17.141493 144.547989,18.158846 144.166351,19.176199 
	C144.614349,19.273514 145.062347,19.370827 145.510361,19.468140 
	C145.676483,18.315012 145.842606,17.161884 146.581131,16.028584 
M101.096931,78.497360 
	C101.223740,78.183762 101.350548,77.870155 101.249931,76.845421 
	C102.054840,72.983162 102.126328,69.750443 96.259583,71.450981 
	C96.388168,73.960297 96.519264,76.518456 96.650360,79.076607 
	C96.996231,79.102158 97.342102,79.127708 97.687981,79.153252 
	C98.010620,78.291298 98.333260,77.429344 98.676331,76.512810 
	C99.588776,77.158783 100.251289,77.627808 101.096931,78.497360 
M128.681335,34.067959 
	C134.303131,30.075134 134.902832,22.221895 129.907959,16.002005 
	C127.594116,15.374897 125.251343,11.177324 122.249779,15.989978 
	C117.108925,18.523981 117.271667,23.241112 117.649361,27.823963 
	C117.971138,31.728413 119.446289,35.096733 124.344231,36.435581 
	C125.545341,35.705193 126.746445,34.974804 128.681335,34.067959 
M64.551758,16.364103 
	C63.659248,16.260660 62.766735,16.157219 61.081909,16.009287 
	C60.162567,16.054167 59.243221,16.099045 58.409203,16.139759 
	C58.409203,22.670458 58.409203,28.783041 58.409203,35.168667 
	C59.524502,35.089325 60.715046,35.004631 61.397312,34.956097 
	C61.239204,32.194366 61.101639,29.791378 61.008228,28.159748 
	C63.494556,26.657534 65.670494,25.821732 67.184402,24.318977 
	C69.620667,21.900656 68.168488,17.568171 64.551758,16.364103 
M174.963272,55.132015 
	C176.615189,57.247768 178.267120,59.363522 180.237885,61.887650 
	C180.237885,55.276600 180.237885,49.607327 180.237885,43.938057 
	C179.673065,43.928356 179.108261,43.918655 178.543442,43.908958 
	C178.543442,46.422302 178.525360,48.935822 178.549423,51.448940 
	C178.567230,53.309277 178.246872,54.536079 175.903809,52.287582 
	C173.735596,49.605602 171.567383,46.923618 169.255035,44.063351 
	C169.255035,50.260365 169.255035,55.941982 169.255035,61.623596 
	C169.678833,61.636135 170.102615,61.648670 170.526413,61.661205 
	C170.683701,58.249161 170.840988,54.837112 171.053986,50.216652 
	C172.835266,52.296112 173.789612,53.410229 174.963272,55.132015 
M127.600815,51.612881 
	C126.518204,54.355438 125.435593,57.097996 123.882401,61.032673 
	C122.815727,54.528717 122.003571,49.576626 121.191414,44.624535 
	C120.907669,44.630882 120.623932,44.637230 120.340195,44.643578 
	C119.092491,48.038750 117.844795,51.433926 116.228539,55.831985 
	C114.491486,51.302166 113.207542,47.953938 111.765694,44.193935 
	C107.161446,52.054073 115.776016,55.398495 116.542587,61.132740 
	C117.670227,58.540257 118.797859,55.947773 120.309860,52.471611 
	C120.707314,54.112545 120.797447,54.586029 120.937263,55.044361 
	C121.531662,56.993004 121.560135,59.835178 122.873093,60.684120 
	C125.158508,62.161846 126.786674,60.340385 128.125351,58.013058 
	C128.477448,57.400906 131.940140,58.241535 133.760071,58.958790 
	C134.609299,59.293480 134.947495,60.924831 135.517303,61.968456 
	C135.966949,61.785343 136.416611,61.602230 136.866257,61.419113 
	C135.872498,58.621872 134.878738,55.824631 133.849243,52.286140 
	C132.870804,49.560177 131.892365,46.834209 130.468719,42.867908 
	C129.390427,46.408295 128.691467,48.703186 127.600815,51.612881 
M21.872660,19.545084 
	C20.787817,22.330194 19.350698,25.033205 18.679146,27.914639 
	C15.780865,40.350304 15.015380,52.665207 22.316612,64.079643 
	C24.536692,67.550415 27.372297,70.095299 32.064713,68.813103 
	C21.308685,51.730007 22.414528,34.067162 28.614691,16.572805 
	C27.780088,19.018938 28.501083,20.254257 31.048609,21.400667 
	C40.774094,25.777225 46.274899,37.098042 37.475395,47.076679 
	C36.955250,47.666527 37.045040,48.794231 36.606613,50.776726 
	C43.831554,47.607964 48.548546,43.415623 50.989658,36.848175 
	C52.910786,31.679663 51.746834,25.748573 47.690571,22.712061 
	C41.884476,18.365625 35.435978,15.459380 27.797626,15.336759 
	C27.797626,14.247629 27.797626,13.158500 27.797626,11.454348 
	C25.724533,13.433025 24.378164,14.718075 22.493721,15.426074 
	C19.072456,15.715547 15.651193,16.005020 12.229929,16.294493 
	C12.298141,16.814199 12.366354,17.333906 12.434566,17.853613 
	C15.661105,18.183084 18.887644,18.512554 21.872660,19.545084 
M99.500000,66.060715 
	C85.341248,66.108620 71.175194,65.951317 57.021236,66.133965 
	C57.038879,66.620117 57.056519,67.106270 57.074162,67.592422 
	C98.016830,67.592422 138.959503,67.592422 179.902161,67.592422 
	C179.905670,67.082130 179.909180,66.571838 179.912689,66.061546 
	C153.441803,66.061546 126.970901,66.061546 99.500000,66.060715 
M77.989853,15.147313 
	C75.529877,15.147313 73.069893,15.147313 71.424393,15.147313 
	C71.424393,21.978483 71.424393,28.530926 71.424393,35.056717 
	C73.017319,35.056717 75.062279,35.056717 76.423134,35.056717 
	C76.122185,32.312809 75.846779,29.801788 75.571373,27.290766 
	C78.055603,29.881151 78.817177,33.674538 81.036087,34.968105 
	C83.356720,36.320976 87.078522,35.270359 90.492966,35.270359 
	C89.684822,34.006550 89.132507,33.142815 89.000710,32.936707 
	C86.940475,33.065041 84.072487,33.732025 83.812614,33.177261 
	C82.533279,30.446222 80.778427,27.119209 81.385231,24.513437 
	C82.317307,20.510893 83.952042,17.195971 77.989853,15.147313 
M106.514366,56.583565 
	C106.572334,54.137981 107.137627,51.566982 106.571228,49.275745 
	C105.687180,45.699535 103.361000,42.754288 99.200935,43.349300 
	C94.753860,43.985367 93.030525,47.529114 92.698982,51.601826 
	C92.340134,56.010021 93.469772,60.115791 98.003220,61.800911 
	C102.008484,63.289700 104.556763,60.834297 106.514366,56.583565 
M91.137794,22.560568 
	C90.222122,25.280397 89.306458,28.000229 88.492760,30.417156 
	C90.815910,30.121826 93.257011,29.201286 95.215622,29.816584 
	C96.214516,30.130384 96.347244,33.201378 96.835388,34.900448 
	C98.376709,34.900448 100.217934,34.900448 101.492294,34.900448 
	C99.119392,28.192320 96.817863,21.685968 94.092049,13.980157 
	C92.888069,17.497417 92.146530,19.663733 91.137794,22.560568 
M165.916367,50.044956 
	C163.278214,43.431824 158.930969,41.397865 154.863205,44.873466 
	C151.701126,47.575218 150.723877,53.663597 152.842255,57.827847 
	C154.424316,60.937840 156.866196,63.075478 160.459000,61.912651 
	C165.186371,60.382622 166.193604,56.331959 166.089417,51.865784 
	C166.081650,51.533035 166.048126,51.200886 165.916367,50.044956 
M176.265656,26.089090 
	C175.071442,22.449110 173.877243,18.809130 172.683044,15.169150 
	C172.319321,15.189513 171.955597,15.209876 171.591873,15.230240 
	C170.261276,19.356627 168.930679,23.483015 167.517303,27.866076 
	C172.869247,27.155886 175.361526,30.158529 174.145615,35.074974 
	C176.067673,35.074974 177.975098,35.074974 179.730469,35.074974 
	C178.627548,32.200478 177.595352,29.510313 176.265656,26.089090 
M77.223877,59.022472 
	C72.750443,60.165112 72.630936,56.955067 72.486069,54.084015 
	C72.316765,50.728764 72.446503,47.358429 72.446503,43.994637 
	C71.617058,44.034657 70.787613,44.074680 69.958168,44.114700 
	C70.230148,48.942146 70.251038,53.805729 70.937164,58.573574 
	C71.126831,59.891548 73.182732,61.682625 74.586578,61.892845 
	C76.268478,62.144703 78.627121,61.424507 79.876602,60.254078 
	C82.238617,58.041519 81.930771,47.168732 79.674355,43.857315 
	C79.082108,48.916046 78.520409,53.713833 77.223877,59.022472 
M107.640900,35.353168 
	C108.954849,35.353168 110.268791,35.353168 110.609871,35.353168 
	C111.277641,30.312923 111.880859,25.759939 112.553337,20.684179 
	C111.654655,21.930639 111.015656,22.816929 109.868401,24.408157 
	C108.777641,20.844210 107.959793,18.171999 107.091927,15.336335 
	C105.835297,15.336335 103.886665,15.336335 101.628830,15.336335 
	C105.483658,21.619652 109.477547,27.621788 107.640900,35.353168 
M143.641464,33.980789 
	C146.429703,30.621300 146.048309,27.473551 143.229492,24.277746 
	C141.112564,21.877718 139.239075,19.262981 137.259247,16.746412 
	C134.498901,19.241520 134.056396,22.743431 137.543091,25.384808 
	C141.247650,28.191229 144.399750,30.636040 140.756332,35.775234 
	C141.534271,35.328072 142.312210,34.880909 143.641464,33.980789 
M63.711422,45.172180 
	C63.314251,44.944355 62.917076,44.716526 62.519905,44.488697 
	C61.113018,48.521572 59.706131,52.554451 58.299244,56.587326 
	C58.955086,56.391468 59.610928,56.195614 60.266769,55.999756 
	C63.082355,57.792545 65.897942,59.585335 69.386520,61.806644 
	C67.506020,56.268272 65.736885,51.057903 63.711422,45.172180 
M86.302475,48.861202 
	C86.483185,53.164742 85.759163,57.586918 87.137711,63.098408 
	C91.247925,56.443752 85.160248,48.931206 93.176651,44.277473 
	C89.118546,44.277473 86.060509,44.277473 82.293167,44.277473 
	C84.098770,45.952515 85.179909,46.955479 86.302475,48.861202 
M140.577667,61.721966 
	C140.989929,58.428345 141.274368,55.111931 141.856323,51.848564 
	C142.293640,49.396172 143.112976,47.011898 143.828812,44.349754 
	C141.992935,44.349754 139.059509,44.349754 137.206177,44.349754 
	C138.020020,46.938698 139.044067,49.141155 139.355591,51.440166 
	C139.797897,54.704254 139.715820,58.039398 140.577667,61.721966 
M148.943954,60.864391 
	C148.943954,55.255421 148.943954,49.646450 148.943954,44.037479 
	C148.318436,44.060173 147.692902,44.082870 147.067383,44.105564 
	C147.067383,49.620590 147.043655,55.135975 147.127167,60.649738 
	C147.132111,60.975494 147.999756,61.288189 148.943954,60.864391 
M179.483612,78.396339 
	C179.826721,76.658966 177.626022,74.495712 174.835022,74.085693 
	C174.062622,73.972229 173.194916,74.507500 171.562134,74.978371 
	C173.377045,75.755615 174.310104,76.155212 175.578247,76.698296 
	C174.260376,77.621803 173.310516,78.287415 172.360657,78.953026 
	C172.493134,79.365883 172.625610,79.778732 172.758087,80.191589 
	C174.836151,79.774475 176.914230,79.357353 179.483612,78.396339 
M173.527512,72.963715 
	C173.677567,72.892014 173.850067,72.846008 173.970688,72.740623 
	C174.070129,72.653748 174.108109,72.496544 174.173309,72.370499 
	C172.332916,71.624413 170.492538,70.878326 168.652145,70.132240 
	C168.459808,70.859505 168.267471,71.586769 168.075119,72.314034 
	C169.649231,72.542892 171.223343,72.771759 173.527512,72.963715 
M163.351364,73.005478 
	C163.926498,72.924973 164.501633,72.844460 165.076767,72.763954 
	C165.064713,72.542831 165.052673,72.321716 165.040634,72.100601 
	C163.651947,71.974571 162.263275,71.848541 160.874588,71.722504 
	C160.868149,72.084808 160.861710,72.447105 160.855255,72.809402 
	C161.474838,72.874840 162.094406,72.940277 163.351364,73.005478 
M74.538269,78.991768 
	C74.461159,79.130234 74.348244,79.262398 74.322319,79.409859 
	C74.309708,79.481590 74.467796,79.663338 74.534866,79.656685 
	C75.200256,79.590721 75.862755,79.495743 76.526077,79.408974 
	C75.984482,79.099701 75.442886,78.790428 74.538269,78.991768 
M25.859413,77.700851 
	C25.400366,77.588593 24.941320,77.476326 24.482275,77.364067 
	C24.826080,77.693291 25.169886,78.022514 25.859413,77.700851 
z"/>
<path fill="#18415B" opacity="1.000000" stroke="none" 
	d="
M23.031796,16.003124 
	C24.378164,14.718075 25.724533,13.433025 27.797626,11.454348 
	C27.797626,13.158500 27.797626,14.247629 27.872000,15.731220 
	C27.946373,16.125683 27.948528,16.062262 27.948528,16.062262 
	C22.414528,34.067162 21.308685,51.730007 32.064713,68.813103 
	C27.372297,70.095299 24.536692,67.550415 22.316612,64.079643 
	C15.015380,52.665207 15.780865,40.350304 18.679146,27.914639 
	C19.350698,25.033205 20.787817,22.330194 22.261639,19.030085 
	C22.777678,17.677765 22.904737,16.840445 23.031796,16.003124 
z"/>
<path fill="#B82B3D" opacity="1.000000" stroke="none" 
	d="
M27.914963,16.131199 
	C35.435978,15.459380 41.884476,18.365625 47.690571,22.712061 
	C51.746834,25.748573 52.910786,31.679663 50.989658,36.848175 
	C48.548546,43.415623 43.831554,47.607964 36.606613,50.776726 
	C37.045040,48.794231 36.955250,47.666527 37.475395,47.076679 
	C46.274899,37.098042 40.774094,25.777225 31.048609,21.400667 
	C28.501083,20.254257 27.780088,19.018938 28.281609,16.317533 
	C27.948528,16.062262 27.946373,16.125683 27.914963,16.131199 
z"/>
<path fill="#636462" opacity="1.000000" stroke="none" 
	d="
M100.000000,66.061127 
	C126.970901,66.061546 153.441803,66.061546 179.912689,66.061546 
	C179.909180,66.571838 179.905670,67.082130 179.902161,67.592422 
	C138.959503,67.592422 98.016830,67.592422 57.074162,67.592422 
	C57.056519,67.106270 57.038879,66.620117 57.021236,66.133965 
	C71.175194,65.951317 85.341248,66.108620 100.000000,66.061127 
z"/>
<path fill="#325167" opacity="1.000000" stroke="none" 
	d="
M78.402214,15.172867 
	C83.952042,17.195971 82.317307,20.510893 81.385231,24.513437 
	C80.778427,27.119209 82.533279,30.446222 83.812614,33.177261 
	C84.072487,33.732025 86.940475,33.065041 89.000710,32.936707 
	C89.132507,33.142815 89.684822,34.006550 90.492966,35.270359 
	C87.078522,35.270359 83.356720,36.320976 81.036087,34.968105 
	C78.817177,33.674538 78.055603,29.881151 75.571373,27.290766 
	C75.846779,29.801788 76.122185,32.312809 76.423134,35.056717 
	C75.062279,35.056717 73.017319,35.056717 71.424393,35.056717 
	C71.424393,28.530926 71.424393,21.978483 71.424393,15.147313 
	C73.069893,15.147313 75.529877,15.147313 78.402214,15.172867 
M76.560669,17.002895 
	C76.135277,19.413797 75.709885,21.824701 75.284500,24.235603 
	C75.900139,24.313486 76.515785,24.391369 77.131432,24.469254 
	C79.936714,22.325523 80.157150,19.884268 76.560669,17.002895 
z"/>
<path fill="#AD4857" opacity="1.000000" stroke="none" 
	d="
M133.884979,53.027390 
	C134.878738,55.824631 135.872498,58.621872 136.866257,61.419113 
	C136.416611,61.602230 135.966949,61.785343 135.517303,61.968456 
	C134.947495,60.924831 134.609299,59.293480 133.760071,58.958790 
	C131.940140,58.241535 128.477448,57.400906 128.125351,58.013058 
	C126.786674,60.340385 125.158508,62.161846 122.873093,60.684120 
	C121.560135,59.835178 121.531662,56.993004 120.937263,55.044361 
	C120.797447,54.586029 120.707314,54.112545 120.309860,52.471611 
	C118.797859,55.947773 117.670227,58.540257 116.542587,61.132740 
	C115.776016,55.398495 107.161446,52.054073 111.765694,44.193935 
	C113.207542,47.953938 114.491486,51.302166 116.228539,55.831985 
	C117.844795,51.433926 119.092491,48.038750 120.340195,44.643578 
	C120.623932,44.637230 120.907669,44.630882 121.191414,44.624535 
	C122.003571,49.576626 122.815727,54.528717 123.882401,61.032673 
	C125.435593,57.097996 126.518204,54.355438 128.059036,51.482765 
	C130.174377,52.334370 131.005295,55.964127 133.884979,53.027390 
z"/>
<path fill="#AF4A59" opacity="1.000000" stroke="none" 
	d="
M106.362762,56.960945 
	C104.556763,60.834297 102.008484,63.289700 98.003220,61.800911 
	C93.469772,60.115791 92.340134,56.010021 92.698982,51.601826 
	C93.030525,47.529114 94.753860,43.985367 99.200935,43.349300 
	C103.361000,42.754288 105.687180,45.699535 106.571228,49.275745 
	C107.137627,51.566982 106.572334,54.137981 106.362762,56.960945 
M99.528038,59.276211 
	C103.622589,59.005520 104.993835,56.013794 104.620422,52.797390 
	C104.355637,50.516575 102.607315,48.203873 100.958458,46.427837 
	C100.533150,45.969715 97.392693,47.031509 96.530327,48.173515 
	C94.232750,51.216122 94.428329,54.644112 96.762314,57.755333 
	C97.220421,58.365990 98.060966,58.689747 99.528038,59.276211 
z"/>
<path fill="#314D60" opacity="1.000000" stroke="none" 
	d="
M91.271393,22.195309 
	C92.146530,19.663733 92.888069,17.497417 94.092049,13.980157 
	C96.817863,21.685968 99.119392,28.192320 101.492294,34.900448 
	C100.217934,34.900448 98.376709,34.900448 96.835388,34.900448 
	C96.347244,33.201378 96.214516,30.130384 95.215622,29.816584 
	C93.257011,29.201286 90.815910,30.121826 88.492760,30.417156 
	C89.306458,28.000229 90.222122,25.280397 91.271393,22.195309 
z"/>
<path fill="#AC4857" opacity="1.000000" stroke="none" 
	d="
M165.971466,50.456707 
	C166.048126,51.200886 166.081650,51.533035 166.089417,51.865784 
	C166.193604,56.331959 165.186371,60.382622 160.459000,61.912651 
	C156.866196,63.075478 154.424316,60.937840 152.842255,57.827847 
	C150.723877,53.663597 151.701126,47.575218 154.863205,44.873466 
	C158.930969,41.397865 163.278214,43.431824 165.971466,50.456707 
M154.892532,56.460381 
	C156.805435,59.680370 159.885040,60.837978 161.874069,57.592533 
	C163.303680,55.259838 162.887680,51.483055 162.423599,48.485363 
	C162.276215,47.533382 158.053436,46.147835 157.855820,46.437008 
	C156.313553,48.693741 155.240433,51.286335 154.170197,53.837208 
	C153.962555,54.332092 154.400833,55.097977 154.892532,56.460381 
z"/>
<path fill="#314F63" opacity="1.000000" stroke="none" 
	d="
M176.414398,26.454617 
	C177.595352,29.510313 178.627548,32.200478 179.730469,35.074974 
	C177.975098,35.074974 176.067673,35.074974 174.145615,35.074974 
	C175.361526,30.158529 172.869247,27.155886 167.517303,27.866076 
	C168.930679,23.483015 170.261276,19.356627 171.591873,15.230240 
	C171.955597,15.209876 172.319321,15.189513 172.683044,15.169150 
	C173.877243,18.809130 175.071442,22.449110 176.414398,26.454617 
z"/>
<path fill="#AD4758" opacity="1.000000" stroke="none" 
	d="
M77.591293,58.767044 
	C78.520409,53.713833 79.082108,48.916046 79.674355,43.857315 
	C81.930771,47.168732 82.238617,58.041519 79.876602,60.254078 
	C78.627121,61.424507 76.268478,62.144703 74.586578,61.892845 
	C73.182732,61.682625 71.126831,59.891548 70.937164,58.573574 
	C70.251038,53.805729 70.230148,48.942146 69.958168,44.114700 
	C70.787613,44.074680 71.617058,44.034657 72.446503,43.994637 
	C72.446503,47.358429 72.316765,50.728764 72.486069,54.084015 
	C72.630936,56.955067 72.750443,60.165112 77.591293,58.767044 
z"/>
<path fill="#2D4C63" opacity="1.000000" stroke="none" 
	d="
M107.364059,35.318871 
	C109.477547,27.621788 105.483658,21.619652 101.628830,15.336335 
	C103.886665,15.336335 105.835297,15.336335 107.091927,15.336335 
	C107.959793,18.171999 108.777641,20.844210 109.868401,24.408157 
	C111.015656,22.816929 111.654655,21.930639 112.553337,20.684179 
	C111.880859,25.759939 111.277641,30.312923 110.609871,35.353168 
	C110.268791,35.353168 108.954849,35.353168 107.364059,35.318871 
z"/>
<path fill="#274962" opacity="1.000000" stroke="none" 
	d="
M143.365814,34.207268 
	C142.312210,34.880909 141.534271,35.328072 140.756332,35.775234 
	C144.399750,30.636040 141.247650,28.191229 137.543091,25.384808 
	C134.056396,22.743431 134.498901,19.241520 137.259247,16.746412 
	C139.239075,19.262981 141.112564,21.877718 143.229492,24.277746 
	C146.048309,27.473551 146.429703,30.621300 143.365814,34.207268 
z"/>
<path fill="#B45363" opacity="1.000000" stroke="none" 
	d="
M63.839584,45.509857 
	C65.736885,51.057903 67.506020,56.268272 69.386520,61.806644 
	C65.897942,59.585335 63.082355,57.792545 60.266769,55.999756 
	C59.610928,56.195614 58.955086,56.391468 58.299244,56.587326 
	C59.706131,52.554451 61.113018,48.521572 62.519905,44.488697 
	C62.917076,44.716526 63.314251,44.944355 63.839584,45.509857 
z"/>
<path fill="#BA5769" opacity="1.000000" stroke="none" 
	d="
M86.281761,48.409821 
	C85.179909,46.955479 84.098770,45.952515 82.293167,44.277473 
	C86.060509,44.277473 89.118546,44.277473 93.176651,44.277473 
	C85.160248,48.931206 91.247925,56.443752 87.137711,63.098408 
	C85.759163,57.586918 86.483185,53.164742 86.281761,48.409821 
z"/>
<path fill="#1D4058" opacity="1.000000" stroke="none" 
	d="
M160.049789,35.443970 
	C159.116379,35.403671 158.182983,35.363365 156.890045,35.205555 
	C156.437668,34.766933 156.344818,34.445816 156.456879,34.101406 
	C156.661758,34.078114 156.991425,33.830311 157.232208,33.829369 
	C157.819595,33.633869 157.908264,33.356754 157.849518,32.592216 
	C157.932739,30.791769 157.905472,29.396191 157.968033,27.681938 
	C157.697739,26.957787 157.337601,26.552307 156.679596,26.010067 
	C156.546616,24.915361 156.711487,23.957413 156.876343,22.999464 
	C156.973358,20.856430 157.070389,18.713396 157.173615,16.433201 
	C160.065659,15.348904 161.283890,15.911016 161.225540,19.367071 
	C161.142059,24.310745 161.626129,29.263998 161.641235,34.679520 
	C160.959686,35.245243 160.504745,35.344604 160.049789,35.443970 
z"/>
<path fill="#B04B5A" opacity="1.000000" stroke="none" 
	d="
M174.743973,54.524342 
	C173.789612,53.410229 172.835266,52.296112 171.053986,50.216652 
	C170.840988,54.837112 170.683701,58.249161 170.526413,61.661205 
	C170.102615,61.648670 169.678833,61.636135 169.255035,61.623596 
	C169.255035,55.941982 169.255035,50.260365 169.255035,44.063351 
	C171.567383,46.923618 173.735596,49.605602 175.724197,52.810913 
	C175.277710,53.730946 175.010849,54.127644 174.743973,54.524342 
z"/>
<path fill="#123852" opacity="1.000000" stroke="none" 
	d="
M64.964447,16.903505 
	C68.168488,17.568171 69.620667,21.900656 67.184402,24.318977 
	C65.670494,25.821732 63.494556,26.657534 61.008228,28.159748 
	C61.101639,29.791378 61.239204,32.194366 61.397312,34.956097 
	C60.715046,35.004631 59.524502,35.089325 58.409203,35.168667 
	C58.409203,28.783041 58.409203,22.670458 58.409203,16.139759 
	C59.243221,16.099045 60.162567,16.054167 61.375565,16.423748 
	C61.379723,19.480448 61.090221,22.122690 60.786144,24.897942 
	C66.038193,24.326443 66.505608,23.261616 64.964447,16.903505 
z"/>
<path fill="#25465D" opacity="1.000000" stroke="none" 
	d="
M123.958611,35.903618 
	C119.446289,35.096733 117.971138,31.728413 117.649361,27.823963 
	C117.271667,23.241112 117.108925,18.523981 122.657028,16.264389 
	C123.064270,16.538801 123.185219,17.011194 122.976822,17.344522 
	C119.975029,23.713558 120.330322,29.494528 124.098236,35.216885 
	C124.027145,35.440113 123.958611,35.903618 123.958611,35.903618 
z"/>
<path fill="#B04756" opacity="1.000000" stroke="none" 
	d="
M140.217743,61.533073 
	C139.715820,58.039398 139.797897,54.704254 139.355591,51.440166 
	C139.044067,49.141155 138.020020,46.938698 137.206177,44.349754 
	C139.059509,44.349754 141.992935,44.349754 143.828812,44.349754 
	C143.112976,47.011898 142.293640,49.396172 141.856323,51.848564 
	C141.274368,55.111931 140.989929,58.428345 140.217743,61.533073 
z"/>
<path fill="#1E415B" opacity="1.000000" stroke="none" 
	d="
M152.897064,16.044567 
	C152.595123,18.095831 152.293198,20.147093 152.003143,22.970074 
	C152.057907,24.492956 152.100830,25.244118 152.063873,26.245628 
	C152.032425,26.664337 152.080826,26.832701 152.068436,27.414745 
	C152.051971,29.218811 152.096313,30.609198 152.070190,32.302105 
	C152.340164,33.028675 152.680573,33.452724 153.175140,33.997162 
	C153.329300,34.117550 153.719696,34.142498 153.760895,34.355141 
	C153.802078,34.567780 153.976227,34.964420 153.976227,34.964420 
	C151.869415,35.069942 149.762589,35.175461 147.844070,35.271553 
	C148.941406,28.835154 150.239883,22.785866 147.712921,16.431595 
	C149.614517,16.070923 151.255783,16.057745 152.897064,16.044567 
z"/>
<path fill="#B75162" opacity="1.000000" stroke="none" 
	d="
M174.853638,54.828178 
	C175.010849,54.127644 175.277710,53.730946 175.845917,53.135468 
	C178.246872,54.536079 178.567230,53.309277 178.549423,51.448940 
	C178.525360,48.935822 178.543442,46.422302 178.543442,43.908958 
	C179.108261,43.918655 179.673065,43.928356 180.237885,43.938057 
	C180.237885,49.607327 180.237885,55.276600 180.237885,61.887650 
	C178.267120,59.363522 176.615189,57.247768 174.853638,54.828178 
z"/>
<path fill="#20425A" opacity="1.000000" stroke="none" 
	d="
M130.021454,16.518524 
	C134.902832,22.221895 134.303131,30.075134 128.264221,33.842628 
	C127.811142,33.408684 127.775162,33.200066 127.944778,32.652458 
	C129.638702,27.486015 130.649307,22.672213 127.880661,17.634510 
	C128.687668,17.038588 129.354553,16.778555 130.021454,16.518524 
z"/>
<path fill="#F9FBFC" opacity="1.000000" stroke="none" 
	d="
M153.719696,34.142498 
	C153.719696,34.142498 153.329300,34.117550 153.156464,33.725121 
	C152.702637,32.888321 152.421631,32.443951 152.140656,31.999584 
	C152.096313,30.609198 152.051971,29.218811 152.211685,27.320164 
	C152.464447,26.709200 152.581512,26.567965 152.549316,26.510849 
	C152.443222,26.322596 152.283096,26.164785 152.143738,25.995281 
	C152.100830,25.244118 152.057907,24.492956 152.080627,23.370760 
	C153.460205,22.999685 154.774170,22.999645 156.482239,22.999535 
	C156.711487,23.957413 156.546616,24.915361 156.714355,26.278252 
	C157.324051,27.122337 157.601120,27.561476 157.878204,28.000614 
	C157.905472,29.396191 157.932739,30.791769 157.667755,32.671131 
	C157.156723,33.328438 157.028702,33.553570 156.991425,33.830311 
	C156.991425,33.830311 156.661758,34.078114 156.035019,34.066330 
	C154.845413,34.083862 154.282562,34.113178 153.719696,34.142498 
z"/>
<path fill="#E1E9F0" opacity="1.000000" stroke="none" 
	d="
M64.758102,16.633804 
	C66.505608,23.261616 66.038193,24.326443 60.786144,24.897942 
	C61.090221,22.122690 61.379723,19.480448 61.771725,16.445992 
	C62.766735,16.157219 63.659248,16.260660 64.758102,16.633804 
z"/>
<path fill="#AF4C5D" opacity="1.000000" stroke="none" 
	d="
M133.867111,52.656765 
	C131.005295,55.964127 130.174377,52.334370 128.254883,51.175362 
	C128.691467,48.703186 129.390427,46.408295 130.468719,42.867908 
	C131.892365,46.834209 132.870804,49.560177 133.867111,52.656765 
z"/>
<path fill="#69777D" opacity="1.000000" stroke="none" 
	d="
M100.913795,78.096840 
	C100.251289,77.627808 99.588776,77.158783 98.676331,76.512810 
	C98.333260,77.429344 98.010620,78.291298 97.687981,79.153252 
	C97.342102,79.127708 96.996231,79.102158 96.650360,79.076607 
	C96.519264,76.518456 96.388168,73.960297 96.259583,71.450981 
	C102.126328,69.750443 102.054840,72.983162 101.218140,77.331253 
	C101.186348,77.817078 100.913795,78.096840 100.913795,78.096840 
z"/>
<path fill="#A44050" opacity="1.000000" stroke="none" 
	d="
M148.704956,61.235680 
	C147.999756,61.288189 147.132111,60.975494 147.127167,60.649738 
	C147.043655,55.135975 147.067383,49.620590 147.067383,44.105564 
	C147.692902,44.082870 148.318436,44.060173 148.943954,44.037479 
	C148.943954,49.646450 148.943954,55.255421 148.704956,61.235680 
z"/>
<path fill="#EEE4E6" opacity="1.000000" stroke="none" 
	d="
M179.237946,78.668289 
	C176.914230,79.357353 174.836151,79.774475 172.758087,80.191589 
	C172.625610,79.778732 172.493134,79.365883 172.360657,78.953026 
	C173.310516,78.287415 174.260376,77.621803 175.578247,76.698296 
	C174.310104,76.155212 173.377045,75.755615 171.562134,74.978371 
	C173.194916,74.507500 174.062622,73.972229 174.835022,74.085693 
	C177.626022,74.495712 179.826721,76.658966 179.237946,78.668289 
z"/>
<path fill="#B05365" opacity="1.000000" stroke="none" 
	d="
M22.762758,15.714600 
	C22.904737,16.840445 22.777678,17.677765 22.382401,18.678555 
	C18.887644,18.512554 15.661105,18.183084 12.434566,17.853613 
	C12.366354,17.333906 12.298141,16.814199 12.229929,16.294493 
	C15.651193,16.005020 19.072456,15.715547 22.762758,15.714600 
z"/>
<path fill="#E0E5E9" opacity="1.000000" stroke="none" 
	d="
M160.376984,35.649387 
	C160.504745,35.344604 160.959686,35.245243 161.760590,35.082848 
	C162.774780,34.609756 163.593079,34.331257 164.086761,33.768162 
	C167.153229,30.270563 167.902618,32.350418 168.479431,35.854805 
	C165.764206,35.854805 163.234192,35.854805 160.376984,35.649387 
z"/>
<path fill="#F0F4F6" opacity="1.000000" stroke="none" 
	d="
M129.964706,16.260265 
	C129.354553,16.778555 128.687668,17.038588 127.580956,17.478630 
	C125.822502,17.442825 124.503860,17.227011 123.185219,17.011196 
	C123.185219,17.011194 123.064270,16.538801 123.023209,16.298470 
	C125.251343,11.177324 127.594116,15.374897 129.964706,16.260265 
z"/>
<path fill="#EEE4E6" opacity="1.000000" stroke="none" 
	d="
M173.162476,72.982162 
	C171.223343,72.771759 169.649231,72.542892 168.075119,72.314034 
	C168.267471,71.586769 168.459808,70.859505 168.652145,70.132240 
	C170.492538,70.878326 172.332916,71.624413 174.173309,72.370499 
	C174.108109,72.496544 174.070129,72.653748 173.970688,72.740623 
	C173.850067,72.846008 173.677567,72.892014 173.162476,72.982162 
z"/>
<path fill="#F9FBFC" opacity="1.000000" stroke="none" 
	d="
M153.149124,15.818674 
	C151.255783,16.057745 149.614517,16.070923 147.563080,16.073168 
	C146.962296,16.051016 146.771713,16.039799 146.290649,16.014378 
	C146.000153,16.000174 145.991867,15.992483 145.991867,15.992483 
	C148.507629,13.323291 150.847641,13.197057 153.149124,15.818674 
z"/>
<path fill="#9BA6B0" opacity="1.000000" stroke="none" 
	d="
M176.007568,7.794385 
	C176.804031,7.881133 177.719482,7.754470 178.363998,8.113779 
	C179.027802,8.483853 179.720108,9.280200 179.833496,9.981603 
	C179.901810,10.404136 178.889542,11.001355 178.362854,11.520081 
	C177.791412,10.871312 177.219986,10.222541 176.239746,9.142250 
	C175.830383,8.451687 175.829803,8.192644 175.886200,7.914679 
	C175.943192,7.895757 176.007568,7.794385 176.007568,7.794385 
z"/>
<path fill="#F0F4F6" opacity="1.000000" stroke="none" 
	d="
M127.739182,32.991444 
	C127.775162,33.200066 127.811142,33.408684 127.897331,33.930855 
	C126.746445,34.974804 125.545341,35.705193 124.151421,36.169601 
	C123.958611,35.903618 124.027145,35.440113 124.398964,35.168755 
	C125.760246,34.262081 126.749710,33.626762 127.739182,32.991444 
z"/>
<path fill="#EBEFF2" opacity="1.000000" stroke="none" 
	d="
M172.965378,8.997632 
	C173.309570,8.001284 173.653763,7.004937 173.997971,6.008593 
	C174.644775,6.407662 175.291595,6.806731 175.972992,7.500092 
	C176.007568,7.794385 175.943192,7.895757 175.598633,8.021927 
	C174.491180,8.431276 173.728271,8.714456 172.965378,8.997632 
z"/>
<path fill="#D3D8DA" opacity="1.000000" stroke="none" 
	d="
M173.008270,9.327072 
	C173.728271,8.714456 174.491180,8.431276 175.541656,8.040849 
	C175.829803,8.192644 175.830383,8.451687 175.940674,9.084758 
	C175.761185,10.475741 175.472000,11.492697 174.904739,13.487457 
	C173.977295,11.570644 173.514221,10.613577 173.008270,9.327072 
z"/>
<path fill="#F9FBFC" opacity="1.000000" stroke="none" 
	d="
M146.004440,16.004465 
	C145.842606,17.161884 145.676483,18.315012 145.510361,19.468140 
	C145.062347,19.370827 144.614349,19.273514 144.166351,19.176199 
	C144.547989,18.158846 144.929642,17.141493 145.651581,16.058311 
	C145.991867,15.992483 146.000153,16.000174 146.004440,16.004465 
z"/>
<path fill="#EEE4E6" opacity="1.000000" stroke="none" 
	d="
M163.032669,73.005600 
	C162.094406,72.940277 161.474838,72.874840 160.855255,72.809402 
	C160.861710,72.447105 160.868149,72.084808 160.874588,71.722504 
	C162.263275,71.848541 163.651947,71.974571 165.040634,72.100601 
	C165.052673,72.321716 165.064713,72.542831 165.076767,72.763954 
	C164.501633,72.844460 163.926498,72.924973 163.032669,73.005600 
z"/>
<path fill="#98A6AF" opacity="1.000000" stroke="none" 
	d="
M57.011581,79.006516 
	C55.806782,79.006516 54.601982,79.006516 53.397186,79.006516 
	C53.451172,78.643089 53.505157,78.279671 53.559147,77.916245 
	C54.126568,77.888557 54.693993,77.860870 55.676811,78.060883 
	C56.398663,78.527901 56.705124,78.767204 57.011581,79.006516 
z"/>
<path fill="#747C7B" opacity="1.000000" stroke="none" 
	d="
M74.719780,78.736465 
	C75.442886,78.790428 75.984482,79.099701 76.526077,79.408974 
	C75.862755,79.495743 75.200256,79.590721 74.534866,79.656685 
	C74.467796,79.663338 74.309708,79.481590 74.322319,79.409859 
	C74.348244,79.262398 74.461159,79.130234 74.719780,78.736465 
z"/>
<path fill="#E0E5E9" opacity="1.000000" stroke="none" 
	d="
M153.760895,34.355141 
	C154.282562,34.113178 154.845413,34.083862 155.830139,34.089622 
	C156.344818,34.445816 156.437668,34.766933 156.633011,35.321045 
	C155.985703,35.550156 155.235916,35.546272 154.231171,35.253403 
	C153.976227,34.964420 153.802078,34.567780 153.760895,34.355141 
z"/>
<path fill="#58636B" opacity="1.000000" stroke="none" 
	d="
M25.686550,78.026299 
	C25.169886,78.022514 24.826080,77.693291 24.482275,77.364059 
	C24.941320,77.476326 25.400366,77.588593 25.686550,78.026299 
z"/>
<path fill="#7D8B93" opacity="1.000000" stroke="none" 
	d="
M57.056488,78.738914 
	C56.705124,78.767204 56.398663,78.527901 55.943233,78.027939 
	C55.898632,77.414711 56.002998,77.062141 56.538292,76.818588 
	C57.131138,77.100037 57.293064,77.272476 57.454987,77.444908 
	C57.337120,77.787041 57.219257,78.129181 57.056488,78.738914 
z"/>
<path fill="#7D8B93" opacity="1.000000" stroke="none" 
	d="
M56.754547,76.645096 
	C57.049320,76.609306 57.558758,76.856033 57.761589,77.273834 
	C57.293064,77.272476 57.131138,77.100037 56.754547,76.645096 
z"/>
<path fill="#69777D" opacity="1.000000" stroke="none" 
	d="
M101.331848,77.686813 
	C101.350548,77.870155 101.223740,78.183762 101.005363,78.297104 
	C100.913795,78.096840 101.186348,77.817078 101.331848,77.686813 
z"/>
<path fill="#D4DCE2" opacity="1.000000" stroke="none" 
	d="
M76.975998,17.051086 
	C80.157150,19.884268 79.936714,22.325523 77.131432,24.469254 
	C76.515785,24.391369 75.900139,24.313486 75.284500,24.235603 
	C75.709885,21.824701 76.135277,19.413797 76.975998,17.051086 
z"/>
<path fill="#FCF5F5" opacity="1.000000" stroke="none" 
	d="
M99.126587,59.211018 
	C98.060966,58.689747 97.220421,58.365990 96.762314,57.755333 
	C94.428329,54.644112 94.232750,51.216122 96.530327,48.173515 
	C97.392693,47.031509 100.533150,45.969715 100.958458,46.427837 
	C102.607315,48.203873 104.355637,50.516575 104.620422,52.797390 
	C104.993835,56.013794 103.622589,59.005520 99.126587,59.211018 
z"/>
<path fill="#FBF4F4" opacity="1.000000" stroke="none" 
	d="
M154.716858,56.099617 
	C154.400833,55.097977 153.962555,54.332092 154.170197,53.837208 
	C155.240433,51.286335 156.313553,48.693741 157.855820,46.437008 
	C158.053436,46.147835 162.276215,47.533382 162.423599,48.485363 
	C162.887680,51.483055 163.303680,55.259838 161.874069,57.592533 
	C159.885040,60.837978 156.805435,59.680370 154.716858,56.099617 
z"/>
<path fill="#E0E5E9" opacity="1.000000" stroke="none" 
	d="
M157.968033,27.681940 
	C157.601120,27.561476 157.324051,27.122337 157.012222,26.415012 
	C157.337601,26.552307 157.697739,26.957787 157.968033,27.681940 
z"/>
<path fill="#E0E5E9" opacity="1.000000" stroke="none" 
	d="
M157.232208,33.829369 
	C157.028702,33.553570 157.156723,33.328438 157.557251,33.076004 
	C157.908264,33.356754 157.819595,33.633869 157.232208,33.829369 
z"/>
<path fill="#FAF9FA" opacity="1.000000" stroke="none" 
	d="
M127.944778,32.652454 
	C126.749710,33.626762 125.760246,34.262081 124.470047,34.945526 
	C120.330322,29.494528 119.975029,23.713558 122.976822,17.344524 
	C124.503860,17.227011 125.822502,17.442825 127.440842,17.814520 
	C130.649307,22.672213 129.638702,27.486015 127.944778,32.652454 
z"/>
<path fill="#E0E5E9" opacity="1.000000" stroke="none" 
	d="
M152.070190,32.302105 
	C152.421631,32.443951 152.702637,32.888321 153.002319,33.604733 
	C152.680573,33.452724 152.340164,33.028675 152.070190,32.302105 
z"/>
<path fill="#E0E5E9" opacity="1.000000" stroke="none" 
	d="
M152.063873,26.245628 
	C152.283096,26.164785 152.443222,26.322596 152.549316,26.510849 
	C152.581512,26.567965 152.464447,26.709200 152.272491,26.906485 
	C152.080826,26.832701 152.032425,26.664337 152.063873,26.245628 
z"/>
</svg>